<svg xmlns="http://www.w3.org/2000/svg" xmlns:xlink="http://www.w3.org/1999/xlink" xmlns:lucid="lucid" width="1184.56" height="284.09"><g transform="translate(-399.63592779827525 -395.30895728013695)" lucid:page-tab-id="0_0"><path d="M400.64 414.83a6 6 0 0 1 6-6h161.23a6 6 0 0 1 6 6v65.92a6 6 0 0 1-6 6H406.64a6 6 0 0 1-6-6z" stroke="#000" stroke-width="2" fill="#fff"/><use xlink:href="#a" transform="matrix(1,0,0,1,409.29746474169485,412.7243464498782) translate(13.28564453125 45.15625)"/><use xlink:href="#b" transform="matrix(1,0,0,1,409.29746474169485,412.7243464498782) translate(88.69580078125 45.15625)"/><path d="M576.37 447.82l31 .64" stroke="#3a414a" stroke-width="3" stroke-linejoin="round" fill="none"/><path d="M576.44 446.35l-.07 2.95-1.5-.04v-2.95z" stroke="#3a414a" stroke-width=".05" fill="#3a414a"/><path d="M621.87 448.77L608.72 456l.3-15z" stroke="#3a414a" stroke-width="3" fill="#3a414a"/><path d="M907.2 396.83c28.72 0 52 23.28 52 52s-23.28 52-52 52H677.87c-28.72 0-52-23.28-52-52s23.28-52 52-52z" stroke="#000" stroke-width="2" fill="#fff"/><use xlink:href="#c" transform="matrix(1,0,0,1,642.5333333333334,402.0281937423134) translate(9.1884765625 36.9375)"/><use xlink:href="#d" transform="matrix(1,0,0,1,642.5333333333334,402.0281937423134) translate(160.072265625 36.9375)"/><use xlink:href="#e" transform="matrix(1,0,0,1,642.5333333333334,402.0281937423134) translate(198.462890625 36.9375)"/><use xlink:href="#f" transform="matrix(1,0,0,1,642.5333333333334,402.0281937423134) translate(226.671875 36.9375)"/><use xlink:href="#b" transform="matrix(1,0,0,1,642.5333333333334,402.0281937423134) translate(123.49072265625 74.68828124999999)"/><path d="M961.7 448.8l31-.3" stroke="#3a414a" stroke-width="3" stroke-linejoin="round" fill="none"/><path d="M961.75 450.3h-1.62l.07-1.46-.02-1.5h1.54z" stroke="#3a414a" stroke-width=".05" fill="#3a414a"/><path d="M1007.2 448.34l-12.9 7.64-.17-15z" stroke="#3a414a" stroke-width="3" fill="#3a414a"/><path d="M1218.4 408.83c21.8 0 39.47 17.67 39.47 39.48 0 21.8-17.68 39.5-39.48 39.5h-167.72c-21.8 0-39.48-17.7-39.48-39.5s17.68-39.47 39.48-39.47z" stroke="#000" stroke-width="2" fill="#fff"/><use xlink:href="#g" transform="matrix(1,0,0,1,1023.5333333333333,412.7762700960959) translate(7.32861328125 45.4375)"/><use xlink:href="#d" transform="matrix(1,0,0,1,1023.5333333333333,412.7762700960959) translate(107.36767578125 45.4375)"/><use xlink:href="#h" transform="matrix(1,0,0,1,1023.5333333333333,412.7762700960959) translate(145.75830078125 45.4375)"/><path d="M1260.37 448.3h31" stroke="#3a414a" stroke-width="3" stroke-linejoin="round" fill="none"/><path d="M1260.4 449.78h-1.63l.1-1.45-.04-1.5h1.58z" stroke="#3a414a" stroke-width=".05" fill="#3a414a"/><path d="M1305.87 448.3l-13 7.5v-15z" stroke="#3a414a" stroke-width="3" fill="#3a414a"/><path d="M1531.2 396.3c28.72 0 52 23.3 52 52 0 28.73-23.28 52-52 52h-169.33c-28.72 0-52-23.27-52-52 0-28.7 23.28-52 52-52z" stroke="#000" stroke-width="2" fill="#fff"/><use xlink:href="#i" transform="matrix(1,0,0,1,1323.533333333333,401.50895728013694) translate(38.7208203125 36.9375)"/><use xlink:href="#j" transform="matrix(1,0,0,1,1323.533333333333,401.50895728013694) translate(176.2110546875 36.9375)"/><use xlink:href="#k" transform="matrix(1,0,0,1,1323.533333333333,401.50895728013694) translate(32.5966796875 74.68828124999999)"/><path d="M1446.6 502.8l.7 18.67 1.36 19.63" stroke="#3a414a" stroke-width="3" stroke-linejoin="round" fill="none"/><path d="M1448.07 502.8l-2.95.1-.06-1.6h2.95z" stroke="#3a414a" stroke-width=".05" fill="#3a414a"/><path d="M1449.66 555.56l-8.38-12.44 14.97-1.04z" stroke="#3a414a" stroke-width="3" fill="#3a414a"/><path d="M1523.78 559.55c32.82 0 59.42 26.6 59.42 59.43 0 32.8-26.6 59.42-59.42 59.42h-147.82c-32.82 0-59.43-26.6-59.43-59.42s26.6-59.43 59.43-59.43z" stroke="#000" stroke-width="2" fill="#fff"/><use xlink:href="#l" transform="matrix(1,0,0,1,1329.866666666666,565.4953505093038) translate(21.33056640625 45.25)"/><use xlink:href="#m" transform="matrix(1,0,0,1,1329.866666666666,565.4953505093038) translate(205.05712890625 45.25)"/><use xlink:href="#n" transform="matrix(1,0,0,1,1329.866666666666,565.4953505093038) translate(34.4130859375 83.00078124999999)"/><path d="M1314.03 618.98h-37.67" stroke="#3a414a" stroke-width="3" stroke-linejoin="round" fill="none"/><path d="M1315.53 618.97l.04 1.48H1314v-2.95h1.6z" stroke="#3a414a" stroke-width=".05" fill="#3a414a"/><path d="M1261.87 618.98l13-7.5v15z" stroke="#3a414a" stroke-width="3" fill="#3a414a"/><path d="M1198.44 559.55c32.82 0 59.43 26.6 59.43 59.43 0 32.8-26.6 59.42-59.43 59.42h-143.82c-32.82 0-59.42-26.6-59.42-59.42s26.6-59.43 59.42-59.43z" stroke="#000" stroke-width="2" fill="#fff"/><g><use xlink:href="#o" transform="matrix(1,0,0,1,1008.3333333333334,565.4953505093038) translate(34.42529296875 45.25)"/><use xlink:href="#j" transform="matrix(1,0,0,1,1008.3333333333334,565.4953505093038) translate(171.49658203125 45.25)"/><use xlink:href="#k" transform="matrix(1,0,0,1,1008.3333333333334,565.4953505093038) translate(28.0966796875 83.00078124999999)"/></g><path d="M992.7 618.98h-67" stroke="#3a414a" stroke-width="3" stroke-linejoin="round" fill="none"/><path d="M994.2 618.97l.04 1.48h-1.58v-2.95h1.6z" stroke="#3a414a" stroke-width=".05" fill="#3a414a"/><path d="M911.2 618.98l13-7.5v15z" stroke="#3a414a" stroke-width="3" fill="#3a414a"/><path d="M677.87 576.26a6 6 0 0 1 6-6H901.2a6 6 0 0 1 6 6v85.43a6 6 0 0 1-6 6H683.87a6 6 0 0 1-6-6z" stroke="#000" stroke-width="2" fill="#fff"/><g><use xlink:href="#p" transform="matrix(1,0,0,1,689.3333333333335,575.1354872280536) translate(30.73681640625 33.4375)"/><use xlink:href="#q" transform="matrix(1,0,0,1,689.3333333333335,575.1354872280536) translate(27.77880859375 71.18828124999999)"/></g><path d="M1023.08 500.93a6 6 0 0 1 6-6h233.34a6 6 0 0 1 6 6v16.83a6 6 0 0 1-6 6h-233.34a6 6 0 0 1-6-6z" fill="none"/><g><use xlink:href="#r" transform="matrix(1,0,0,1,1028.0825325520832,499.9333333333334) translate(0 15.158637152777779)"/><use xlink:href="#s" transform="matrix(1,0,0,1,1028.0825325520832,499.9333333333334) translate(51.87717013888889 15.158637152777779)"/><use xlink:href="#t" transform="matrix(1,0,0,1,1028.0825325520832,499.9333333333334) translate(124.69509548611111 15.158637152777779)"/></g><path d="M400.64 626.03a6 6 0 0 1 6-6h225.33a6 6 0 0 1 6 6v35.66a6 6 0 0 1-6 6H406.64a6 6 0 0 1-6-6z" fill="none"/><g><use xlink:href="#u" transform="matrix(1,0,0,1,405.63592779827525,625.0336578009704) translate(0 15.24782986111111)"/><use xlink:href="#v" transform="matrix(1,0,0,1,405.63592779827525,625.0336578009704) translate(77.70941840277779 15.24782986111111)"/><use xlink:href="#w" transform="matrix(1,0,0,1,405.63592779827525,625.0336578009704) translate(101.61241319444446 15.24782986111111)"/><use xlink:href="#x" transform="matrix(1,0,0,1,405.63592779827525,625.0336578009704) translate(136.6351996527778 15.24782986111111)"/><use xlink:href="#y" transform="matrix(1,0,0,1,405.63592779827525,625.0336578009704) translate(146.18272569444446 15.24782986111111)"/><use xlink:href="#z" transform="matrix(1,0,0,1,405.63592779827525,625.0336578009704) translate(0 34.06944444444444)"/><use xlink:href="#A" transform="matrix(1,0,0,1,405.63592779827525,625.0336578009704) translate(41.767578125 34.06944444444444)"/><use xlink:href="#B" transform="matrix(1,0,0,1,405.63592779827525,625.0336578009704) translate(91.22178819444446 34.06944444444444)"/></g><defs><path d="M657 26c-323 0-524-166-541-416h195c15 169 171 246 346 246 202 0 356-106 356-265 5-203-294-238-475-293-239-73-380-191-380-389 0-252 224-419 512-419 294 0 499 171 508 396H992c-17-145-151-228-328-228-193 0-321 102-321 242 0 156 175 211 284 241l149 41c160 44 422 134 422 412 0 244-197 432-541 432" id="C"/><path d="M628 24c-324 0-524-230-524-574 0-343 198-582 503-582 237 0 487 146 487 559v75H286c9 234 145 362 343 362 132 0 231-58 273-172l174 48C1024-91 857 24 628 24zM287-650h624c-17-190-120-322-304-322-192 0-309 151-320 322" id="D"/><path d="M338-670V0H158v-1118h173l1 207c72-158 192-221 342-221 226 0 378 139 378 422V0H872v-695c0-172-96-275-252-275-161 0-282 109-282 300zm398-643c-99 0-192-83-243-83-35 0-51 40-53 79H314c4-120 55-208 162-208 104 0 174 85 241 85 33 0 49-23 56-81h123c-4 126-62 208-160 208" id="E"/><path d="M471 26C259 26 90-98 90-318c0-256 228-303 435-329 202-27 287-16 287-108 0-139-79-219-234-219-161 0-248 86-283 164l-173-57c86-203 278-265 451-265 150 0 419 46 419 395V0H815v-152h-12C765-73 660 26 471 26zm31-159c199 0 310-134 310-271v-155c-30 35-226 55-295 64-131 17-246 59-246 186 0 116 97 176 231 176" id="F"/><path d="M338-1490V0H158v-1490h180" id="G"/><g id="a"><use transform="matrix(0.0126953125,0,0,0.0126953125,0,0)" xlink:href="#C"/><use transform="matrix(0.0126953125,0,0,0.0126953125,16.681640625,0)" xlink:href="#D"/><use transform="matrix(0.0126953125,0,0,0.0126953125,31.83984375,0)" xlink:href="#E"/><use transform="matrix(0.0126953125,0,0,0.0126953125,47.201171875,0)" xlink:href="#F"/><use transform="matrix(0.0126953125,0,0,0.0126953125,61.80078125,0)" xlink:href="#G"/></g><path d="M180 0v-1490h908v168H370v486h669v168H370v500h727V0H180" id="H"/><path d="M783 20c-382 0-661-292-661-764 0-473 279-766 661-766 302 0 548 182 601 489h-190c-42-204-217-313-411-313-268 0-476 208-476 590 0 381 209 588 476 588 195 0 369-110 411-313h190c-52 303-296 489-601 489" id="I"/><path d="M789 20c-398 0-667-293-667-764 0-473 273-766 655-766 315 0 558 198 612 487h-196c-61-191-204-311-415-311-262 0-471 207-471 590 0 380 208 588 482 588 249 0 420-165 425-427H828v-166h572v163c0 370-256 606-611 606" id="J"/><g id="b"><use transform="matrix(0.0126953125,0,0,0.0126953125,0,0)" xlink:href="#H"/><use transform="matrix(0.0126953125,0,0,0.0126953125,15.6279296875,0)" xlink:href="#I"/><use transform="matrix(0.0126953125,0,0,0.0126953125,34.6201171875,0)" xlink:href="#J"/></g><path d="M52 0l541-1490h220L1361 0h-200l-149-416H398L254 0H52zm404-582h497c-103-290-145-390-251-756-108 377-145 460-246 756" id="K"/><path d="M577 24c-279 0-473-224-473-580 0-354 195-576 474-576 218 0 287 134 324 193h14v-551h180V0H922v-173h-20C865-111 790 24 577 24zm27-161c203 0 314-172 314-421 0-247-108-413-314-413-212 0-317 181-317 413 0 235 108 421 317 421" id="L"/><path d="M1096 418H916v-591h-14C865-111 790 24 577 24c-279 0-473-224-473-580 0-354 195-576 474-576 218 0 287 134 324 193h20v-179h174V418zM604-137c203 0 314-172 314-421 0-247-108-413-314-413-212 0-317 181-317 413 0 235 108 421 317 421" id="M"/><path d="M537 14c-226 0-379-139-379-422v-710h180v695c0 172 97 275 253 275 160 0 281-109 281-300v-670h181V0H879v-209C806-46 684 14 537 14" id="N"/><path d="M158 0v-1118h180V0H158zm91-1301c-68 0-125-53-125-119s57-119 125-119c69 0 126 53 126 119s-57 119-126 119" id="O"/><path d="M538 24C308 24 148-78 108-271l171-41c32 123 123 178 257 178 156 0 256-77 256-169 0-77-54-128-164-154l-186-44c-203-48-300-148-300-305 0-192 176-326 414-326 230 0 351 112 402 269l-163 42c-31-80-94-158-238-158-133 0-233 69-233 162 0 83 57 129 188 160l169 40c203 48 298 149 298 302 0 196-179 339-441 339" id="P"/><path d="M613 24c-304 0-509-231-509-576 0-350 205-580 509-580 216 0 392 114 453 309l-173 49c-33-115-133-197-280-197-223 0-326 196-326 419 0 220 103 415 326 415 150 0 252-85 285-206l172 49C1010-95 832 24 613 24" id="Q"/><path d="M613 24c-304 0-509-231-509-576 0-350 205-580 509-580 305 0 511 230 511 580 0 345-206 576-511 576zm0-161c226 0 329-195 329-415 0-222-103-419-329-419-223 0-326 196-326 419 0 220 103 415 326 415zm-79-1127l140-294h201l-194 294H534" id="R"/><path d="M338-670V0H158v-1118h173l1 207c72-158 192-221 342-221 226 0 378 139 378 422V0H872v-695c0-172-96-275-252-275-161 0-282 109-282 300" id="S"/><g id="c"><use transform="matrix(0.0126953125,0,0,0.0126953125,0,0)" xlink:href="#K"/><use transform="matrix(0.0126953125,0,0,0.0126953125,17.9384765625,0)" xlink:href="#L"/><use transform="matrix(0.0126953125,0,0,0.0126953125,33.8583984375,0)" xlink:href="#M"/><use transform="matrix(0.0126953125,0,0,0.0126953125,49.7783203125,0)" xlink:href="#N"/><use transform="matrix(0.0126953125,0,0,0.0126953125,65.15234375,0)" xlink:href="#O"/><use transform="matrix(0.0126953125,0,0,0.0126953125,71.44921875,0)" xlink:href="#P"/><use transform="matrix(0.0126953125,0,0,0.0126953125,85.1728515625,0)" xlink:href="#O"/><use transform="matrix(0.0126953125,0,0,0.0126953125,91.4697265625,0)" xlink:href="#Q"/><use transform="matrix(0.0126953125,0,0,0.0126953125,106.3232421875,0)" xlink:href="#O"/><use transform="matrix(0.0126953125,0,0,0.0126953125,112.6201171875,0)" xlink:href="#R"/><use transform="matrix(0.0126953125,0,0,0.0126953125,128.2099609375,0)" xlink:href="#S"/></g><g id="d"><use transform="matrix(0.0126953125,0,0,0.0126953125,0,0)" xlink:href="#L"/><use transform="matrix(0.0126953125,0,0,0.0126953125,15.919921875,0)" xlink:href="#D"/></g><g id="e"><use transform="matrix(0.0126953125,0,0,0.0126953125,0,0)" xlink:href="#G"/><use transform="matrix(0.0126953125,0,0,0.0126953125,6.296875,0)" xlink:href="#F"/></g><g id="f"><use transform="matrix(0.0126953125,0,0,0.0126953125,0,0)" xlink:href="#P"/><use transform="matrix(0.0126953125,0,0,0.0126953125,13.7236328125,0)" xlink:href="#D"/><use transform="matrix(0.0126953125,0,0,0.0126953125,28.8818359375,0)" xlink:href="#E"/><use transform="matrix(0.0126953125,0,0,0.0126953125,44.2431640625,0)" xlink:href="#F"/><use transform="matrix(0.0126953125,0,0,0.0126953125,58.8427734375,0)" xlink:href="#G"/></g><path d="M180 0v-1490h901v168H370v510h643v168H370V0H180" id="T"/><path d="M598-1118v154H368v674c0 100 37 144 132 144 23 0 62-6 92-12L629-6c-37 13-88 20-134 20-193 0-307-107-307-290v-688H20v-154h168v-266h180v266h230" id="U"/><path d="M158 0v-1118h174v172h12c41-113 157-188 290-188 26 0 70 2 91 3v181c-11-2-60-10-108-10-161 0-279 109-279 260V0H158" id="V"/><path d="M613 24c-304 0-509-231-509-576 0-350 205-580 509-580 305 0 511 230 511 580 0 345-206 576-511 576zm0-161c226 0 329-195 329-415 0-222-103-419-329-419-223 0-326 196-326 419 0 220 103 415 326 415" id="W"/><g id="g"><use transform="matrix(0.0126953125,0,0,0.0126953125,0,0)" xlink:href="#T"/><use transform="matrix(0.0126953125,0,0,0.0126953125,15.3486328125,0)" xlink:href="#O"/><use transform="matrix(0.0126953125,0,0,0.0126953125,21.6455078125,0)" xlink:href="#G"/><use transform="matrix(0.0126953125,0,0,0.0126953125,28.3232421875,0)" xlink:href="#U"/><use transform="matrix(0.0126953125,0,0,0.0126953125,36.8291015625,0)" xlink:href="#V"/><use transform="matrix(0.0126953125,0,0,0.0126953125,46.6171875,0)" xlink:href="#F"/><use transform="matrix(0.0126953125,0,0,0.0126953125,61.216796875,0)" xlink:href="#L"/><use transform="matrix(0.0126953125,0,0,0.0126953125,77.13671875,0)" xlink:href="#W"/></g><path d="M180 0v-1490h510c348 0 508 194 508 460 0 198-88 351-276 417L1256 0h-220L726-579c-117 2-238 0-356 1V0H180zm190-747h312c235 0 327-108 327-283 0-177-92-293-329-293H370v576" id="X"/><g id="h"><use transform="matrix(0.0126953125,0,0,0.0126953125,0,0)" xlink:href="#X"/><use transform="matrix(0.0126953125,0,0,0.0126953125,16.732421875,0)" xlink:href="#N"/><use transform="matrix(0.0126953125,0,0,0.0126953125,32.1064453125,0)" xlink:href="#O"/><use transform="matrix(0.0126953125,0,0,0.0126953125,38.4033203125,0)" xlink:href="#L"/><use transform="matrix(0.0126953125,0,0,0.0126953125,54.3232421875,0)" xlink:href="#W"/></g><path d="M65 0l393-574-370-544h210c88 136 192 297 267 435 67-142 176-302 264-435h206L661-564 1053 0H844c-94-144-206-310-287-458C484-308 366-142 273 0H65" id="Y"/><g id="i"><use transform="matrix(0.0126953125,0,0,0.0126953125,0,0)" xlink:href="#H"/><use transform="matrix(0.0126953125,0,0,0.0126953125,15.6279296875,0)" xlink:href="#Y"/><use transform="matrix(0.0126953125,0,0,0.0126953125,30.3291015625,0)" xlink:href="#U"/><use transform="matrix(0.0126953125,0,0,0.0126953125,38.8349609375,0)" xlink:href="#V"/><use transform="matrix(0.0126953125,0,0,0.0126953125,48.623046875,0)" xlink:href="#F"/><use transform="matrix(0.0126953125,0,0,0.0126953125,63.22265625,0)" xlink:href="#Q"/><use transform="matrix(0.0126953125,0,0,0.0126953125,78.076171875,0)" xlink:href="#Q"/><use transform="matrix(0.0126953125,0,0,0.0126953125,92.9296875,0)" xlink:href="#O"/><use transform="matrix(0.0126953125,0,0,0.0126953125,99.2265625,0)" xlink:href="#R"/><use transform="matrix(0.0126953125,0,0,0.0126953125,114.81640625,0)" xlink:href="#S"/></g><g id="j"><use transform="matrix(0.0126953125,0,0,0.0126953125,0,0)" xlink:href="#L"/><use transform="matrix(0.0126953125,0,0,0.0126953125,15.919921875,0)" xlink:href="#D"/></g><path d="M158 0v-1118h180V0H158zm12-1264l140-294h201l-194 294H170" id="Z"/><g id="k"><use transform="matrix(0.0126953125,0,0,0.0126953125,0,0)" xlink:href="#Q"/><use transform="matrix(0.0126953125,0,0,0.0126953125,15.107421875,0)" xlink:href="#F"/><use transform="matrix(0.0126953125,0,0,0.0126953125,29.70703125,0)" xlink:href="#V"/><use transform="matrix(0.0126953125,0,0,0.0126953125,39.4951171875,0)" xlink:href="#F"/><use transform="matrix(0.0126953125,0,0,0.0126953125,54.0947265625,0)" xlink:href="#Q"/><use transform="matrix(0.0126953125,0,0,0.0126953125,68.9482421875,0)" xlink:href="#U"/><use transform="matrix(0.0126953125,0,0,0.0126953125,77.2001953125,0)" xlink:href="#D"/><use transform="matrix(0.0126953125,0,0,0.0126953125,92.3583984375,0)" xlink:href="#V"/><use transform="matrix(0.0126953125,0,0,0.0126953125,102.552734375,0)" xlink:href="#Z"/><use transform="matrix(0.0126953125,0,0,0.0126953125,108.849609375,0)" xlink:href="#P"/><use transform="matrix(0.0126953125,0,0,0.0126953125,122.5732421875,0)" xlink:href="#U"/><use transform="matrix(0.0126953125,0,0,0.0126953125,131.0791015625,0)" xlink:href="#O"/><use transform="matrix(0.0126953125,0,0,0.0126953125,137.3759765625,0)" xlink:href="#Q"/><use transform="matrix(0.0126953125,0,0,0.0126953125,152.4833984375,0)" xlink:href="#F"/><use transform="matrix(0.0126953125,0,0,0.0126953125,167.0830078125,0)" xlink:href="#P"/></g><path d="M611 442c-248 0-391-105-460-228l146-94c47 65 117 165 314 165 178 0 307-82 307-266v-224h-17C863-141 792-18 576-18c-268 0-472-195-472-546 0-346 197-568 476-568 216 0 288 133 326 193h17v-179h175V29c0 289-215 413-487 413zm-5-620c203 0 314-146 314-390 0-237-108-403-314-403-213 0-319 180-319 403 0 230 109 390 319 390" id="aa"/><path d="M158 0v-1118h175l1 205c55-151 181-225 313-225 147 0 245 90 285 228 53-141 190-228 352-228 194 0 352 125 352 384V0h-181v-749c0-161-105-225-225-225-151 0-243 103-243 244V0H807v-767c0-124-93-207-219-207-131 0-250 92-250 270V0H158" id="ab"/><g id="l"><use transform="matrix(0.0126953125,0,0,0.0126953125,0,0)" xlink:href="#C"/><use transform="matrix(0.0126953125,0,0,0.0126953125,16.681640625,0)" xlink:href="#D"/><use transform="matrix(0.0126953125,0,0,0.0126953125,31.83984375,0)" xlink:href="#aa"/><use transform="matrix(0.0126953125,0,0,0.0126953125,47.78515625,0)" xlink:href="#ab"/><use transform="matrix(0.0126953125,0,0,0.0126953125,70.560546875,0)" xlink:href="#D"/><use transform="matrix(0.0126953125,0,0,0.0126953125,85.71875,0)" xlink:href="#S"/><use transform="matrix(0.0126953125,0,0,0.0126953125,101.080078125,0)" xlink:href="#U"/><use transform="matrix(0.0126953125,0,0,0.0126953125,109.712890625,0)" xlink:href="#F"/><use transform="matrix(0.0126953125,0,0,0.0126953125,124.3125,0)" xlink:href="#Q"/><use transform="matrix(0.0126953125,0,0,0.0126953125,139.166015625,0)" xlink:href="#O"/><use transform="matrix(0.0126953125,0,0,0.0126953125,145.462890625,0)" xlink:href="#R"/><use transform="matrix(0.0126953125,0,0,0.0126953125,161.052734375,0)" xlink:href="#S"/></g><path d="M140 405l46-156c120 36 205 19 263-150l32-93L54-1118h197c107 313 237 620 324 950 87-331 219-637 326-950h196L606 167c-68 178-176 259-334 259-64 0-113-12-132-21" id="ac"/><use transform="matrix(0.0126953125,0,0,0.0126953125,0,0)" xlink:href="#ac" id="m"/><path d="M126 0v-134l627-806v-11H146v-167h839v143L376-178v11h629V0H126" id="ad"/><g id="n"><use transform="matrix(0.0126953125,0,0,0.0126953125,0,0)" xlink:href="#S"/><use transform="matrix(0.0126953125,0,0,0.0126953125,15.361328125,0)" xlink:href="#W"/><use transform="matrix(0.0126953125,0,0,0.0126953125,30.951171875,0)" xlink:href="#V"/><use transform="matrix(0.0126953125,0,0,0.0126953125,41.1455078125,0)" xlink:href="#ab"/><use transform="matrix(0.0126953125,0,0,0.0126953125,63.9208984375,0)" xlink:href="#F"/><use transform="matrix(0.0126953125,0,0,0.0126953125,78.5205078125,0)" xlink:href="#G"/><use transform="matrix(0.0126953125,0,0,0.0126953125,84.8173828125,0)" xlink:href="#O"/><use transform="matrix(0.0126953125,0,0,0.0126953125,91.1142578125,0)" xlink:href="#ad"/><use transform="matrix(0.0126953125,0,0,0.0126953125,105.47265625,0)" xlink:href="#F"/><use transform="matrix(0.0126953125,0,0,0.0126953125,120.072265625,0)" xlink:href="#Q"/><use transform="matrix(0.0126953125,0,0,0.0126953125,134.92578125,0)" xlink:href="#O"/><use transform="matrix(0.0126953125,0,0,0.0126953125,141.22265625,0)" xlink:href="#R"/><use transform="matrix(0.0126953125,0,0,0.0126953125,156.8125,0)" xlink:href="#S"/></g><g id="o"><use transform="matrix(0.0126953125,0,0,0.0126953125,0,0)" xlink:href="#X"/><use transform="matrix(0.0126953125,0,0,0.0126953125,16.3515625,0)" xlink:href="#D"/><use transform="matrix(0.0126953125,0,0,0.0126953125,31.509765625,0)" xlink:href="#L"/><use transform="matrix(0.0126953125,0,0,0.0126953125,47.4296875,0)" xlink:href="#N"/><use transform="matrix(0.0126953125,0,0,0.0126953125,62.8037109375,0)" xlink:href="#Q"/><use transform="matrix(0.0126953125,0,0,0.0126953125,77.6572265625,0)" xlink:href="#Q"/><use transform="matrix(0.0126953125,0,0,0.0126953125,92.5107421875,0)" xlink:href="#O"/><use transform="matrix(0.0126953125,0,0,0.0126953125,98.8076171875,0)" xlink:href="#R"/><use transform="matrix(0.0126953125,0,0,0.0126953125,114.3974609375,0)" xlink:href="#S"/></g><path d="M645 0H180v-1490h484c435 0 692 280 692 742 0 466-257 748-711 748zM370-168h263c363 0 539-218 539-580 0-358-176-574-521-574H370v1154" id="ae"/><g id="p"><use transform="matrix(0.0126953125,0,0,0.0126953125,0,0)" xlink:href="#ae"/><use transform="matrix(0.0126953125,0,0,0.0126953125,18.763671875,0)" xlink:href="#O"/><use transform="matrix(0.0126953125,0,0,0.0126953125,25.060546875,0)" xlink:href="#F"/><use transform="matrix(0.0126953125,0,0,0.0126953125,39.66015625,0)" xlink:href="#aa"/><use transform="matrix(0.0126953125,0,0,0.0126953125,55.60546875,0)" xlink:href="#S"/><use transform="matrix(0.0126953125,0,0,0.0126953125,70.966796875,0)" xlink:href="#R"/><use transform="matrix(0.0126953125,0,0,0.0126953125,86.556640625,0)" xlink:href="#P"/><use transform="matrix(0.0126953125,0,0,0.0126953125,100.2802734375,0)" xlink:href="#U"/><use transform="matrix(0.0126953125,0,0,0.0126953125,108.7861328125,0)" xlink:href="#O"/><use transform="matrix(0.0126953125,0,0,0.0126953125,115.0830078125,0)" xlink:href="#Q"/><use transform="matrix(0.0126953125,0,0,0.0126953125,129.9365234375,0)" xlink:href="#W"/></g><g id="q"><use transform="matrix(0.0126953125,0,0,0.0126953125,0,0)" xlink:href="#Q"/><use transform="matrix(0.0126953125,0,0,0.0126953125,15.107421875,0)" xlink:href="#F"/><use transform="matrix(0.0126953125,0,0,0.0126953125,29.70703125,0)" xlink:href="#V"/><use transform="matrix(0.0126953125,0,0,0.0126953125,39.0634765625,0)" xlink:href="#L"/><use transform="matrix(0.0126953125,0,0,0.0126953125,54.9833984375,0)" xlink:href="#O"/><use transform="matrix(0.0126953125,0,0,0.0126953125,61.2802734375,0)" xlink:href="#W"/><use transform="matrix(0.0126953125,0,0,0.0126953125,76.8701171875,0)" xlink:href="#G"/><use transform="matrix(0.0126953125,0,0,0.0126953125,83.1669921875,0)" xlink:href="#R"/><use transform="matrix(0.0126953125,0,0,0.0126953125,98.7568359375,0)" xlink:href="#aa"/><use transform="matrix(0.0126953125,0,0,0.0126953125,114.7021484375,0)" xlink:href="#O"/><use transform="matrix(0.0126953125,0,0,0.0126953125,120.9990234375,0)" xlink:href="#Q"/><use transform="matrix(0.0126953125,0,0,0.0126953125,135.8525390625,0)" xlink:href="#W"/></g><path d="M218-607c0-325 108-727 258-974h175c-155 315-250 682-250 974 0 265 78 531 250 886H476C306-10 218-315 218-607" id="af"/><g id="r"><use transform="matrix(0.007595486111111112,0,0,0.007595486111111112,0,0)" xlink:href="#af"/><use transform="matrix(0.007595486111111112,0,0,0.007595486111111112,5.673828125000001,0)" xlink:href="#X"/><use transform="matrix(0.007595486111111112,0,0,0.007595486111111112,15.684678819444446,0)" xlink:href="#N"/><use transform="matrix(0.007595486111111112,0,0,0.007595486111111112,24.882812500000004,0)" xlink:href="#O"/><use transform="matrix(0.007595486111111112,0,0,0.007595486111111112,28.650173611111114,0)" xlink:href="#L"/><use transform="matrix(0.007595486111111112,0,0,0.007595486111111112,38.17491319444445,0)" xlink:href="#W"/></g><path d="M628 24c-324 0-524-230-524-574 0-343 198-582 503-582 237 0 487 146 487 559v75H286c9 234 145 362 343 362 132 0 231-58 273-172l174 48C1024-91 857 24 628 24zM287-650h624c-17-190-120-322-304-322-192 0-309 151-320 322zm237-614l140-294h201l-194 294H524" id="ag"/><path d="M128 359l88-567h206L266 359H128" id="ah"/><g id="s"><use transform="matrix(0.007595486111111112,0,0,0.007595486111111112,0,0)" xlink:href="#D"/><use transform="matrix(0.007595486111111112,0,0,0.007595486111111112,9.069010416666668,0)" xlink:href="#G"/><use transform="matrix(0.007595486111111112,0,0,0.007595486111111112,12.836371527777779,0)" xlink:href="#ag"/><use transform="matrix(0.007595486111111112,0,0,0.007595486111111112,21.905381944444446,0)" xlink:href="#Q"/><use transform="matrix(0.007595486111111112,0,0,0.007595486111111112,30.79210069444445,0)" xlink:href="#U"/><use transform="matrix(0.007595486111111112,0,0,0.007595486111111112,35.88107638888889,0)" xlink:href="#V"/><use transform="matrix(0.007595486111111112,0,0,0.007595486111111112,41.980251736111114,0)" xlink:href="#O"/><use transform="matrix(0.007595486111111112,0,0,0.007595486111111112,45.74761284722223,0)" xlink:href="#Q"/><use transform="matrix(0.007595486111111112,0,0,0.007595486111111112,54.63433159722223,0)" xlink:href="#W"/><use transform="matrix(0.007595486111111112,0,0,0.007595486111111112,63.96158854166667,0)" xlink:href="#ah"/></g><path d="M295 13c-75 0-135-60-135-135s60-135 135-135 135 60 135 135S370 13 295 13" id="ai"/><path d="M96 279C273-86 346-350 346-607c0-292-95-659-250-974h175c150 246 258 650 258 974 0 297-91 602-258 886H96" id="aj"/><g id="t"><use transform="matrix(0.007595486111111112,0,0,0.007595486111111112,0,0)" xlink:href="#D"/><use transform="matrix(0.007595486111111112,0,0,0.007595486111111112,9.069010416666668,0)" xlink:href="#P"/><use transform="matrix(0.007595486111111112,0,0,0.007595486111111112,17.27973090277778,0)" xlink:href="#U"/><use transform="matrix(0.007595486111111112,0,0,0.007595486111111112,22.216796875,0)" xlink:href="#W"/><use transform="matrix(0.007595486111111112,0,0,0.007595486111111112,31.54405381944444,0)" xlink:href="#V"/><use transform="matrix(0.007595486111111112,0,0,0.007595486111111112,37.643229166666664,0)" xlink:href="#S"/><use transform="matrix(0.007595486111111112,0,0,0.007595486111111112,46.83376736111111,0)" xlink:href="#N"/><use transform="matrix(0.007595486111111112,0,0,0.007595486111111112,56.031901041666664,0)" xlink:href="#L"/><use transform="matrix(0.007595486111111112,0,0,0.007595486111111112,65.556640625,0)" xlink:href="#W"/><use transform="matrix(0.007595486111111112,0,0,0.007595486111111112,74.88389756944444,0)" xlink:href="#P"/><use transform="matrix(0.007595486111111112,0,0,0.007595486111111112,83.09461805555556,0)" xlink:href="#ai"/><use transform="matrix(0.007595486111111112,0,0,0.007595486111111112,87.57595486111111,0)" xlink:href="#ai"/><use transform="matrix(0.007595486111111112,0,0,0.007595486111111112,92.05729166666667,0)" xlink:href="#ai"/><use transform="matrix(0.007595486111111112,0,0,0.007595486111111112,96.53862847222223,0)" xlink:href="#aj"/></g><path d="M180 0v-1490h510c348 0 508 209 508 474 0 266-160 477-507 477H370V0H180zm190-706h312c236 0 327-133 327-310 0-176-91-307-329-307H370v617" id="ak"/><path d="M763 24c-353 0-583-224-583-531v-983h190v968c0 214 149 370 393 370 243 0 391-156 391-370v-968h190v983c0 307-230 531-581 531" id="al"/><path d="M180 0v-1490h224l606 953c40 63 108 177 176 312-27-437-7-821-13-1265h190V0h-226C860-448 622-778 356-1262c27 476 11 792 15 1262H180" id="am"/><path d="M98-1322v-168h1126v168H757V0H567v-1322H98" id="an"/><g id="u"><use transform="matrix(0.007595486111111112,0,0,0.007595486111111112,0,0)" xlink:href="#K"/><use transform="matrix(0.007595486111111112,0,0,0.007595486111111112,10.732421875000002,0)" xlink:href="#ak"/><use transform="matrix(0.007595486111111112,0,0,0.007595486111111112,20.667317708333336,0)" xlink:href="#al"/><use transform="matrix(0.007595486111111112,0,0,0.007595486111111112,32.24283854166667,0)" xlink:href="#am"/><use transform="matrix(0.007595486111111112,0,0,0.007595486111111112,43.962673611111114,0)" xlink:href="#an"/><use transform="matrix(0.007595486111111112,0,0,0.007595486111111112,54.00390625,0)" xlink:href="#H"/><use transform="matrix(0.007595486111111112,0,0,0.007595486111111112,63.353949652777786,0)" xlink:href="#C"/></g><path d="M154 0v-137l495-537c165-179 249-281 249-418 0-156-121-253-280-253-170 0-278 110-278 278H158c0-264 200-443 465-443 266 0 455 183 455 416 0 161-73 288-336 568L416-179v12h687V0H154" id="ao"/><g id="v"><use transform="matrix(0.007595486111111112,0,0,0.007595486111111112,0,0)" xlink:href="#an"/><use transform="matrix(0.007595486111111112,0,0,0.007595486111111112,10.04123263888889,0)" xlink:href="#ao"/></g><g id="w"><use transform="matrix(0.007595486111111112,0,0,0.007595486111111112,0,0)" xlink:href="#K"/><use transform="matrix(0.007595486111111112,0,0,0.007595486111111112,10.732421875000002,0)" xlink:href="#ak"/><use transform="matrix(0.007595486111111112,0,0,0.007595486111111112,20.667317708333336,0)" xlink:href="#C"/></g><path d="M419-1970V480H262v-2450h157" id="ap"/><use transform="matrix(0.007595486111111112,0,0,0.007595486111111112,0,0)" xlink:href="#ap" id="x"/><path d="M653-1490V0H466v-1314h-10L96-1047v-204l324-239h233" id="aq"/><path d="M114-1044v-78c-1-208 134-356 347-356 215 0 347 149 347 356v78c0 206-132 352-345 352-217 0-350-147-349-352zm174-78v78c0 118 58 206 175 206 114 0 170-87 170-206 0-158-30-285-172-286-115 0-173 92-173 208" id="ar"/><path d="M370-1490V0H180v-1490h190" id="as"/><g id="y"><use transform="matrix(0.007595486111111112,0,0,0.007595486111111112,0,0)" xlink:href="#aq"/><use transform="matrix(0.007595486111111112,0,0,0.007595486111111112,6.327039930555556,0)" xlink:href="#ar"/><use transform="matrix(0.007595486111111112,0,0,0.007595486111111112,13.330078125000002,0)" xlink:href="#J"/><use transform="matrix(0.007595486111111112,0,0,0.007595486111111112,24.93598090277778,0)" xlink:href="#X"/><use transform="matrix(0.007595486111111112,0,0,0.007595486111111112,34.94683159722222,0)" xlink:href="#as"/><use transform="matrix(0.007595486111111112,0,0,0.007595486111111112,39.124348958333336,0)" xlink:href="#K"/></g><g id="z"><use transform="matrix(0.007595486111111112,0,0,0.007595486111111112,0,0)" xlink:href="#K"/><use transform="matrix(0.007595486111111112,0,0,0.007595486111111112,10.732421875000002,0)" xlink:href="#S"/><use transform="matrix(0.007595486111111112,0,0,0.007595486111111112,19.922960069444446,0)" xlink:href="#Y"/><use transform="matrix(0.007595486111111112,0,0,0.007595486111111112,28.065321180555557,0)" xlink:href="#W"/></g><path d="M180 0v-1490h190v1322h690V0H180" id="at"/><path d="M158 418v-1536h174v179h20c37-59 106-193 324-193 279 0 474 222 474 576 0 356-194 580-473 580-213 0-288-135-325-197h-14v591H158zm492-555c209 0 317-186 317-421 0-232-105-413-317-413-206 0-314 166-314 413 0 249 111 421 314 421" id="au"/><g id="A"><use transform="matrix(0.007595486111111112,0,0,0.007595486111111112,0,0)" xlink:href="#at"/><use transform="matrix(0.007595486111111112,0,0,0.007595486111111112,8.795572916666668,0)" xlink:href="#R"/><use transform="matrix(0.007595486111111112,0,0,0.007595486111111112,18.122829861111114,0)" xlink:href="#au"/><use transform="matrix(0.007595486111111112,0,0,0.007595486111111112,27.64756944444445,0)" xlink:href="#D"/><use transform="matrix(0.007595486111111112,0,0,0.007595486111111112,36.488715277777786,0)" xlink:href="#ad"/></g><g id="B"><use transform="matrix(0.007595486111111112,0,0,0.007595486111111112,0,0)" xlink:href="#X"/><use transform="matrix(0.007595486111111112,0,0,0.007595486111111112,9.78298611111111,0)" xlink:href="#W"/><use transform="matrix(0.007595486111111112,0,0,0.007595486111111112,19.110243055555557,0)" xlink:href="#L"/><use transform="matrix(0.007595486111111112,0,0,0.007595486111111112,28.634982638888893,0)" xlink:href="#V"/><use transform="matrix(0.007595486111111112,0,0,0.007595486111111112,34.734157986111114,0)" xlink:href="#Z"/><use transform="matrix(0.007595486111111112,0,0,0.007595486111111112,38.50151909722223,0)" xlink:href="#aa"/><use transform="matrix(0.007595486111111112,0,0,0.007595486111111112,48.041449652777786,0)" xlink:href="#N"/><use transform="matrix(0.007595486111111112,0,0,0.007595486111111112,57.23958333333334,0)" xlink:href="#D"/><use transform="matrix(0.007595486111111112,0,0,0.007595486111111112,66.08072916666667,0)" xlink:href="#ad"/></g></defs></g></svg>